# xmcd CD database file
#
# Track frame offsets:
#	150
#	18498
#	35111
#	54744
#	76605
#	96531
#	112830
#	130941
#	151789
#	166434
#	180365
#	206565
#	224481
#	240680
#	256943
#	275036
#
# Disc length: 3900 seconds
#
# Revision: 1
# Processed by: cddbd v1.5.2PL0 Copyright (c) Steve Scherf et al.
# Submitted via: CDex 1.70beta2
#
DISCID=dd0f3a10
DTITLE=Burcu Güneş - Ay Şahit
DYEAR=2004
DGENRE=Turkish Pop
TTITLE0=Ay Şahit
TTITLE1=Sınıfta Kal
TTITLE2=Yakışır
TTITLE3=Uyan
TTITLE4=Sahilden
TTITLE5=Distortion
TTITLE6=Savulun Yıllar
TTITLE7=Çarpar
TTITLE8=Kanım Kaynadı
TTITLE9=Coğrafya
TTITLE10=Uzağına Düştüm
TTITLE11=Son Mektup
TTITLE12=Kulun Olayım
TTITLE13=Ne Olacak
TTITLE14=Alışmak
TTITLE15=Sahilden (Dance Version)
EXTD=YEAR: 2004
EXTT0=
EXTT1=
EXTT2=
EXTT3=
EXTT4=
EXTT5=
EXTT6=
EXTT7=
EXTT8=
EXTT9=
EXTT10=
EXTT11=
EXTT12=
EXTT13=
EXTT14=
EXTT15=
PLAYORDER=
